<?xml version="1.0" encoding="UTF-8" standalone="no"?>
<!-- Created with Inkscape (http://www.inkscape.org/) -->

<svg
   width="119.96224mm"
   height="37.450344mm"
   viewBox="0 0 119.96224 37.450344"
   version="1.1"
   id="svg5"
   xml:space="preserve"
   xmlns="http://www.w3.org/2000/svg"
   xmlns:svg="http://www.w3.org/2000/svg"><defs
     id="defs2"><rect
       x="500.86884"
       y="516.83344"
       width="234.87946"
       height="103.20106"
       id="rect1064-7" /><rect
       x="97.082314"
       y="296.65118"
       width="222.96107"
       height="113.50054"
       id="rect170-5" /><filter
       style="color-interpolation-filters:sRGB"
       id="filter3748"
       x="-0.029650921"
       y="-0.066673689"
       width="1.0737154"
       height="1.1676102"><feFlood
         flood-opacity="0.498039"
         flood-color="rgb(0,0,0)"
         result="flood"
         id="feFlood3738" /><feComposite
         in="flood"
         in2="SourceGraphic"
         operator="in"
         result="composite1"
         id="feComposite3740" /><feGaussianBlur
         in="composite1"
         stdDeviation="3"
         result="blur"
         id="feGaussianBlur3742" /><feOffset
         dx="3.5"
         dy="3.7"
         result="offset"
         id="feOffset3744" /><feComposite
         in="SourceGraphic"
         in2="offset"
         operator="over"
         result="composite2"
         id="feComposite3746" /></filter></defs><g
     id="layer4"
     transform="matrix(0.77054712,0,0,0.74743454,-37.767607,-68.327751)"
     style="display:inline"><g
       id="g950"
       transform="matrix(0.19354758,0,0,0.19245854,158.33827,91.288586)"
       style="display:inline;filter:url(#filter3748)"><g
         id="Layer_2"
         class="st0">
	<g
   class="st1"
   id="g791">
		<g
   id="g743"
   style="display:inline">
			<line
   class="st2"
   x1="0"
   y1="4.829"
   x2="256"
   y2="4.829"
   id="line699" />
			<line
   class="st2"
   x1="0"
   y1="16.559999"
   x2="256"
   y2="16.559999"
   id="line701" />
			<line
   class="st2"
   x1="0"
   y1="28.290001"
   x2="256"
   y2="28.290001"
   id="line703" />
			<line
   class="st2"
   x1="0"
   y1="40.021"
   x2="256"
   y2="40.021"
   id="line705" />
			<line
   class="st2"
   x1="0"
   y1="51.750999"
   x2="256"
   y2="51.750999"
   id="line707" />
			<line
   class="st2"
   x1="0"
   y1="63.481998"
   x2="256"
   y2="63.481998"
   id="line709" />
			<line
   class="st2"
   x1="0"
   y1="75.212997"
   x2="256"
   y2="75.212997"
   id="line711" />
			<line
   class="st2"
   x1="0"
   y1="86.943001"
   x2="256"
   y2="86.943001"
   id="line713" />
			<line
   class="st2"
   x1="0"
   y1="98.674004"
   x2="256"
   y2="98.674004"
   id="line715" />
			<line
   class="st2"
   x1="0"
   y1="110.404"
   x2="256"
   y2="110.404"
   id="line717" />
			<line
   class="st2"
   x1="0"
   y1="122.135"
   x2="256"
   y2="122.135"
   id="line719" />
			<line
   class="st2"
   x1="0"
   y1="133.86501"
   x2="256"
   y2="133.86501"
   id="line721" />
			<line
   class="st2"
   x1="0"
   y1="145.59599"
   x2="256"
   y2="145.59599"
   id="line723" />
			<line
   class="st2"
   x1="0"
   y1="157.326"
   x2="256"
   y2="157.326"
   id="line725" />
			<line
   class="st2"
   x1="0"
   y1="169.05701"
   x2="256"
   y2="169.05701"
   id="line727" />
			<line
   class="st2"
   x1="0"
   y1="180.78799"
   x2="256"
   y2="180.78799"
   id="line729" />
			<line
   class="st2"
   x1="0"
   y1="192.51801"
   x2="256"
   y2="192.51801"
   id="line731" />
			<line
   class="st2"
   x1="0"
   y1="204.24899"
   x2="256"
   y2="204.24899"
   id="line733" />
			<line
   class="st2"
   x1="0"
   y1="215.979"
   x2="256"
   y2="215.979"
   id="line735" />
			<line
   class="st2"
   x1="0"
   y1="227.71001"
   x2="256"
   y2="227.71001"
   id="line737" />
			<line
   class="st2"
   x1="0"
   y1="239.44"
   x2="256"
   y2="239.44"
   id="line739" />
			<line
   class="st2"
   x1="0"
   y1="251.17101"
   x2="256"
   y2="251.17101"
   id="line741" />
		</g>
		<g
   id="g789"
   style="display:inline">
			<line
   class="st2"
   x1="251.17101"
   y1="0"
   x2="251.17101"
   y2="256"
   id="line745" />
			<line
   class="st2"
   x1="239.44"
   y1="0"
   x2="239.44"
   y2="256"
   id="line747" />
			<line
   class="st2"
   x1="227.71001"
   y1="0"
   x2="227.71001"
   y2="256"
   id="line749" />
			<line
   class="st2"
   x1="215.979"
   y1="0"
   x2="215.979"
   y2="256"
   id="line751" />
			<line
   class="st2"
   x1="204.24899"
   y1="0"
   x2="204.24899"
   y2="256"
   id="line753" />
			<line
   class="st2"
   x1="192.51801"
   y1="0"
   x2="192.51801"
   y2="256"
   id="line755" />
			<line
   class="st2"
   x1="180.78799"
   y1="0"
   x2="180.78799"
   y2="256"
   id="line757" />
			<line
   class="st2"
   x1="169.05701"
   y1="0"
   x2="169.05701"
   y2="256"
   id="line759" />
			<line
   class="st2"
   x1="157.326"
   y1="0"
   x2="157.326"
   y2="256"
   id="line761" />
			<line
   class="st2"
   x1="145.59599"
   y1="0"
   x2="145.59599"
   y2="256"
   id="line763" />
			<line
   class="st2"
   x1="133.86501"
   y1="0"
   x2="133.86501"
   y2="256"
   id="line765" />
			<line
   class="st2"
   x1="122.135"
   y1="0"
   x2="122.135"
   y2="256"
   id="line767" />
			<line
   class="st2"
   x1="110.404"
   y1="0"
   x2="110.404"
   y2="256"
   id="line769" />
			<line
   class="st2"
   x1="98.674004"
   y1="0"
   x2="98.674004"
   y2="256"
   id="line771" />
			<line
   class="st2"
   x1="86.943001"
   y1="0"
   x2="86.943001"
   y2="256"
   id="line773" />
			<line
   class="st2"
   x1="75.211998"
   y1="0"
   x2="75.211998"
   y2="256"
   id="line775" />
			<line
   class="st2"
   x1="63.481998"
   y1="0"
   x2="63.481998"
   y2="256"
   id="line777" />
			<line
   class="st2"
   x1="51.750999"
   y1="0"
   x2="51.750999"
   y2="256"
   id="line779" />
			<line
   class="st2"
   x1="40.021"
   y1="0"
   x2="40.021"
   y2="256"
   id="line781" />
			<line
   class="st2"
   x1="28.290001"
   y1="0"
   x2="28.290001"
   y2="256"
   id="line783" />
			<line
   class="st2"
   x1="16.559999"
   y1="0"
   x2="16.559999"
   y2="256"
   id="line785" />
			<line
   class="st2"
   x1="4.829"
   y1="0"
   x2="4.829"
   y2="256"
   id="line787" />
		</g>
	</g>
</g><g
         id="Layer_1"
         style="display:inline">
	<g
   id="g858"
   style="display:inline"
   transform="translate(-21.151085,-3.5178554)">
		
		
		
		
		
		
		
		
		
		
		
		
		
		
		
		<g
   id="g2059"
   style="display:inline"
   transform="matrix(0.59890726,0,0,0.53856827,6.1190708,35.871241)"><path
     class="st9"
     d="m 239.243,90.383 c -35.613,-14.752 -75.628,-14.752 -111.241,0 0,49.689 0,99.377 0,149.065 35.613,-14.751 75.628,-14.751 111.241,0 0,-49.688 0,-99.376 0,-149.065 z"
     id="path794" /><path
     class="st3"
     d="m 239.243,240.948 c -0.194,0 -0.39,-0.038 -0.574,-0.114 -35.497,-14.703 -74.598,-14.703 -110.093,0 -0.461,0.191 -0.99,0.14 -1.407,-0.139 -0.417,-0.278 -0.667,-0.746 -0.667,-1.247 V 90.384 c 0,-0.606 0.365,-1.153 0.926,-1.386 36.237,-15.009 76.15,-15.01 112.39,0 0.561,0.232 0.926,0.779 0.926,1.386 v 149.064 c 0,0.501 -0.25,0.969 -0.667,1.247 -0.251,0.167 -0.542,0.253 -0.834,0.253 z m -55.62,-14.142 c 18.312,0 36.625,3.472 54.12,10.416 V 91.39 c -34.944,-14.199 -73.299,-14.199 -108.241,0 v 145.832 c 17.495,-6.945 35.808,-10.416 54.121,-10.416 z"
     id="path796" /><path
     class="st9"
     d="m 16.875,159.891 c -0.041,0 -0.078,-0.005 -0.118,-0.006 v 79.564 c 35.613,-14.751 75.628,-14.751 111.241,0 V 90.383 C 92.385,75.631 52.37,75.631 16.757,90.383 v 56.248 c 0.04,-0.001 0.077,-0.006 0.118,-0.006 z"
     id="path798" /><path
     class="st3"
     d="m 127.998,240.948 c -0.194,0 -0.39,-0.038 -0.574,-0.114 -35.497,-14.703 -74.596,-14.703 -110.093,0 -0.461,0.191 -0.99,0.14 -1.407,-0.139 -0.417,-0.278 -0.667,-0.746 -0.667,-1.247 v -79.563 c 0,-0.404 0.163,-0.791 0.452,-1.073 0.288,-0.282 0.678,-0.44 1.084,-0.427 0.023,0.001 0.098,0.005 0.121,0.007 0.828,0 1.48,0.671 1.48,1.499 0,0.222 -0.05,0.432 -0.138,0.621 v 76.71 c 34.991,-13.888 73.252,-13.889 108.241,0 V 91.39 c -34.943,-14.2 -73.3,-14.2 -108.241,0 v 54.651 c 0.076,0.18 0.118,0.378 0.118,0.585 0,0.828 -0.672,1.5 -1.5,1.5 l -0.082,0.006 c -0.404,0.015 -0.795,-0.145 -1.084,-0.427 -0.289,-0.282 -0.452,-0.669 -0.452,-1.073 V 90.384 c 0,-0.606 0.365,-1.153 0.926,-1.386 36.238,-15.011 76.151,-15.013 112.39,0 0.561,0.232 0.926,0.779 0.926,1.386 v 149.064 c 0,0.501 -0.25,0.969 -0.667,1.247 -0.25,0.167 -0.541,0.253 -0.833,0.253 z"
     id="path800" /><path
     class="st3"
     d="m 115.178,212.873 c -0.145,0 -0.295,-0.021 -0.442,-0.066 -27.717,-8.549 -57.012,-8.549 -84.715,0 -0.799,0.243 -1.632,-0.201 -1.876,-0.991 -0.244,-0.792 0.2,-1.632 0.991,-1.876 28.283,-8.727 58.187,-8.727 86.484,0 0.791,0.244 1.235,1.084 0.991,1.876 -0.199,0.644 -0.792,1.057 -1.433,1.057 z"
     id="path802" /><path
     class="st3"
     d="m 141.409,212.68 c -0.643,0 -1.237,-0.417 -1.435,-1.064 -0.24,-0.793 0.207,-1.631 0.999,-1.872 27.817,-8.45 57.24,-8.471 85.089,-0.056 0.793,0.239 1.242,1.076 1.002,1.869 -0.238,0.794 -1.079,1.242 -1.869,1.002 -27.279,-8.241 -56.101,-8.225 -83.349,0.056 -0.145,0.044 -0.292,0.065 -0.437,0.065 z"
     id="path804" /><path
     class="st3"
     d="m 115.178,192.163 c -0.145,0 -0.295,-0.021 -0.442,-0.066 -27.717,-8.549 -57.012,-8.549 -84.715,0 -0.799,0.242 -1.632,-0.201 -1.876,-0.991 -0.244,-0.792 0.2,-1.632 0.991,-1.876 28.283,-8.727 58.187,-8.727 86.484,0 0.791,0.244 1.235,1.084 0.991,1.876 -0.199,0.644 -0.792,1.057 -1.433,1.057 z"
     id="path806" /><path
     class="st3"
     d="m 141.409,191.97 c -0.643,0 -1.237,-0.417 -1.435,-1.063 -0.24,-0.793 0.207,-1.631 0.999,-1.872 27.817,-8.45 57.24,-8.47 85.089,-0.055 0.793,0.239 1.242,1.076 1.002,1.869 -0.238,0.795 -1.079,1.242 -1.869,1.002 -27.281,-8.242 -56.102,-8.225 -83.349,0.055 -0.145,0.043 -0.292,0.064 -0.437,0.064 z"
     id="path808" /><path
     class="st3"
     d="m 115.178,171.454 c -0.145,0 -0.295,-0.021 -0.442,-0.066 -27.717,-8.549 -57.012,-8.549 -84.715,0 -0.799,0.243 -1.632,-0.201 -1.876,-0.991 -0.244,-0.792 0.2,-1.632 0.991,-1.876 28.283,-8.727 58.187,-8.727 86.484,0 0.791,0.244 1.235,1.084 0.991,1.876 -0.199,0.644 -0.792,1.057 -1.433,1.057 z"
     id="path810" /><path
     class="st3"
     d="m 141.409,171.261 c -0.643,0 -1.237,-0.417 -1.435,-1.063 -0.24,-0.793 0.207,-1.631 0.999,-1.872 27.817,-8.452 57.24,-8.471 85.089,-0.056 0.793,0.239 1.242,1.076 1.002,1.869 -0.238,0.794 -1.079,1.244 -1.869,1.002 -27.279,-8.242 -56.101,-8.224 -83.349,0.056 -0.145,0.043 -0.292,0.064 -0.437,0.064 z"
     id="path812" /><path
     class="st3"
     d="m 115.178,150.744 c -0.145,0 -0.295,-0.021 -0.442,-0.066 -27.717,-8.549 -57.012,-8.549 -84.715,0 -0.799,0.243 -1.632,-0.201 -1.876,-0.991 -0.244,-0.792 0.2,-1.632 0.991,-1.876 28.283,-8.727 58.187,-8.727 86.484,0 0.791,0.244 1.235,1.084 0.991,1.876 -0.199,0.644 -0.792,1.057 -1.433,1.057 z"
     id="path814" /><path
     class="st3"
     d="m 141.409,150.551 c -0.643,0 -1.237,-0.417 -1.435,-1.063 -0.24,-0.793 0.207,-1.631 0.999,-1.872 27.817,-8.45 57.24,-8.471 85.089,-0.056 0.793,0.239 1.242,1.076 1.002,1.869 -0.238,0.795 -1.079,1.242 -1.869,1.002 -27.279,-8.241 -56.101,-8.225 -83.349,0.056 -0.145,0.043 -0.292,0.064 -0.437,0.064 z"
     id="path816" /><path
     class="st3"
     d="m 115.178,130.034 c -0.145,0 -0.295,-0.021 -0.442,-0.066 -27.717,-8.549 -57.012,-8.549 -84.715,0 -0.799,0.242 -1.632,-0.201 -1.876,-0.991 -0.244,-0.792 0.2,-1.632 0.991,-1.876 28.283,-8.727 58.187,-8.727 86.484,0 0.791,0.244 1.235,1.084 0.991,1.876 -0.199,0.644 -0.792,1.057 -1.433,1.057 z"
     id="path818" /><path
     class="st3"
     d="m 141.409,129.841 c -0.643,0 -1.237,-0.417 -1.435,-1.064 -0.24,-0.793 0.207,-1.631 0.999,-1.872 27.817,-8.45 57.24,-8.47 85.089,-0.055 0.793,0.239 1.242,1.076 1.002,1.869 -0.238,0.795 -1.079,1.243 -1.869,1.002 -27.281,-8.241 -56.102,-8.226 -83.349,0.055 -0.145,0.044 -0.292,0.065 -0.437,0.065 z"
     id="path820" /><path
     class="st3"
     d="m 29.578,109.324 c -0.642,0 -1.234,-0.413 -1.434,-1.058 -0.244,-0.792 0.2,-1.632 0.991,-1.876 28.283,-8.727 58.187,-8.727 86.484,0 0.791,0.244 1.235,1.084 0.991,1.876 -0.245,0.789 -1.079,1.233 -1.876,0.991 -27.717,-8.549 -57.012,-8.549 -84.715,0 -0.146,0.046 -0.295,0.067 -0.441,0.067 z"
     id="path822"
     style="display:inline" /><path
     class="st3"
     d="m 141.409,109.132 c -0.643,0 -1.237,-0.417 -1.435,-1.063 -0.24,-0.793 0.207,-1.631 0.999,-1.872 27.817,-8.452 57.24,-8.471 85.089,-0.056 0.793,0.239 1.242,1.076 1.002,1.869 -0.238,0.794 -1.079,1.242 -1.869,1.002 -27.279,-8.242 -56.101,-8.224 -83.349,0.056 -0.145,0.043 -0.292,0.064 -0.437,0.064 z"
     id="path824" /><path
     class="st16"
     d="m 228.23,87.908 c -0.57,1.69 -2.5,4.51 -5.49,7.99 v 9.28 c 1.11,0.31 2.22,0.63 3.32,0.96 0.8,0.24 1.24,1.08 1,1.87 -0.23,0.8 -1.07,1.24 -1.86,1 -0.82,-0.25 -1.64,-0.49 -2.46,-0.71 v 17.6 c 1.11,0.3 2.22,0.62 3.32,0.95 0.8,0.24 1.24,1.08 1,1.87 -0.23,0.79 -1.07,1.25 -1.86,1 -0.82,-0.25 -1.64,-0.49 -2.46,-0.72 v 17.6 c 1.11,0.31 2.22,0.63 3.32,0.96 0.8,0.24 1.24,1.08 1,1.87 -0.23,0.8 -1.07,1.24 -1.86,1 -0.82,-0.25 -1.64,-0.49 -2.46,-0.72 v 17.6 c 1.11,0.31 2.22,0.63 3.32,0.96 0.8,0.24 1.24,1.08 1,1.87 -0.23,0.79 -1.07,1.24 -1.86,1 -0.82,-0.25 -1.64,-0.49 -2.46,-0.72 v 17.6 c 1.11,0.31 2.22,0.63 3.32,0.96 0.8,0.24 1.24,1.08 1,1.87 -0.23,0.79 -1.07,1.24 -1.86,1 -0.82,-0.25 -1.64,-0.49 -2.46,-0.72 v 17.6 c 1.11,0.31 2.22,0.63 3.32,0.96 0.8,0.24 1.24,1.08 1,1.87 -0.23,0.79 -1.07,1.24 -1.86,1 -0.82,-0.25 -1.64,-0.49 -2.46,-0.72 v 20.33 c 5.05,1.41 10.06,3.09 15,5.05 V 91.388 c -3.14,-1.279 -6.32,-2.44 -9.51,-3.48 z"
     id="path856"
     style="display:inline"
     transform="translate(6.0791904e-6)" /></g>
		
		
		
		
		
		
		
		
		
		
		
		
		
		
			
		
		<g
   id="g2033"
   style="display:inline"
   transform="matrix(0.74294812,0,0,0.8081273,80.282514,32.99441)"><path
     class="st19"
     d="M 158.277,36.945 C 148.734,33.887 138.562,32.008 128,32.008 c -54.627,0 -98.911,50.121 -98.911,55 0,4.879 44.284,55 98.911,55 54.627,0 98.911,-50.121 98.911,-55 0,-3.526 -23.128,-30.674 -56.571,-45.464 z"
     id="path838"
     style="display:inline" /><path
     class="st3"
     d="m 128,143.509 c -29.312,0 -54.695,-14.118 -70.828,-25.961 C 40.011,104.949 27.589,90.562 27.589,87.009 27.589,83.456 40.011,69.069 57.172,56.47 73.305,44.627 98.688,30.509 128,30.509 c 10.023,0 20.363,1.685 30.735,5.008 0.789,0.253 1.224,1.098 0.971,1.887 -0.253,0.789 -1.096,1.224 -1.887,0.971 C 147.744,35.146 137.712,33.51 128,33.51 99.781,33.51 75.205,47.069 59.558,58.444 41.691,71.43 31.17,84.597 30.599,87.009 c 0.571,2.412 11.093,15.579 28.959,28.566 15.647,11.375 40.223,24.934 68.442,24.934 28.219,0 52.795,-13.559 68.442,-24.934 17.868,-12.988 28.389,-26.155 28.959,-28.566 -0.838,-3.587 -22.579,-29.46 -55.668,-44.093 -0.758,-0.335 -1.101,-1.221 -0.766,-1.979 0.335,-0.757 1.219,-1.1 1.979,-0.766 32.974,14.583 57.465,41.817 57.465,46.837 0,3.553 -12.422,17.94 -29.583,30.539 -16.133,11.844 -41.517,25.962 -70.828,25.962 z"
     id="path840" /><circle
     class="st4"
     cx="128"
     cy="87.008003"
     r="44"
     id="circle842"
     style="display:inline;fill:#800080" /><path
     class="st3"
     d="m 128,132.509 c -25.089,0 -45.5,-20.411 -45.5,-45.5 0,-25.089 20.411,-45.5 45.5,-45.5 25.089,0 45.5,20.411 45.5,45.5 0,25.089 -20.411,45.5 -45.5,45.5 z m 0,-88 c -23.435,0 -42.5,19.065 -42.5,42.5 0,23.435 19.065,42.5 42.5,42.5 23.435,0 42.5,-19.065 42.5,-42.5 0,-23.435 -19.065,-42.5 -42.5,-42.5 z"
     id="path844" /><path
     class="st8"
     d="m 144.277,72.502 c -5.879,-1.211 -11.876,1.591 -16.277,6.873 -4.401,-5.281 -10.398,-8.084 -16.277,-6.873 -9.679,1.993 -15.366,14.094 -12.703,27.028 2.663,12.934 13.532,25.998 23.211,24.005 2.18,-0.449 4.112,-1.629 5.769,-3.327 1.658,1.699 3.589,2.878 5.769,3.327 9.679,1.993 20.548,-11.071 23.211,-24.005 2.663,-12.935 -3.024,-25.036 -12.703,-27.028 z"
     id="path846" /><path
     class="st3"
     d="m 135.796,125.239 c -0.785,0 -1.562,-0.078 -2.329,-0.236 -1.964,-0.404 -3.797,-1.325 -5.467,-2.744 -1.67,1.419 -3.503,2.34 -5.467,2.744 -5.065,1.047 -10.618,-1.393 -15.644,-6.858 -4.493,-4.888 -7.984,-11.733 -9.339,-18.312 -1.354,-6.571 -0.701,-13.162 1.835,-18.558 2.605,-5.543 6.879,-9.181 12.034,-10.241 5.717,-1.177 11.81,1.087 16.58,6.088 4.77,-5.001 10.863,-7.263 16.58,-6.088 v 0 c 5.155,1.061 9.429,4.698 12.034,10.241 2.536,5.396 3.188,11.986 1.835,18.558 -1.355,6.579 -4.846,13.425 -9.339,18.312 -4.263,4.638 -8.91,7.094 -13.313,7.094 z M 128,118.707 c 0.404,0 0.791,0.163 1.073,0.452 1.521,1.559 3.202,2.536 4.999,2.906 3.932,0.812 8.608,-1.358 12.829,-5.951 4.142,-4.505 7.36,-10.817 8.61,-16.888 1.223,-5.94 0.65,-11.862 -1.612,-16.677 -2.193,-4.666 -5.718,-7.713 -9.925,-8.579 v 0 c -5.083,-1.042 -10.629,1.332 -14.822,6.363 -0.57,0.686 -1.734,0.686 -2.305,0 -4.194,-5.033 -9.738,-7.411 -14.822,-6.363 -4.207,0.866 -7.732,3.913 -9.925,8.579 -2.263,4.815 -2.835,10.736 -1.612,16.677 1.25,6.07 4.469,12.383 8.61,16.888 4.221,4.591 8.899,6.761 12.829,5.951 1.797,-0.37 3.479,-1.348 4.999,-2.906 0.283,-0.289 0.67,-0.452 1.074,-0.452 z"
     id="path848" /><path
     class="st3"
     d="m 128.356,80.746 c -0.061,0 -0.124,-0.004 -0.186,-0.012 -0.821,-0.102 -1.406,-0.851 -1.304,-1.673 1.147,-9.28 -1.672,-19.167 -7.543,-26.446 -0.519,-0.645 -0.419,-1.589 0.227,-2.109 0.645,-0.521 1.589,-0.42 2.109,0.226 6.465,8.016 9.448,18.477 8.184,28.698 -0.094,0.759 -0.741,1.316 -1.487,1.316 z"
     id="path850"
     style="display:inline" /><ellipse
     transform="matrix(0.767,-0.6416,0.6416,0.767,-6.651,102.882)"
     class="st14"
     cx="138.349"
     cy="60.599998"
     rx="12.491"
     ry="7.8509998"
     id="ellipse852"
     style="display:inline;fill:#00ff00" /><path
     class="st3"
     d="m 133.831,71.205 c -2.973,0 -5.431,-0.693 -6.213,-1.628 -1.681,-2.01 -0.897,-11.442 4.73,-16.149 2.503,-2.093 6.008,-3.307 9.871,-3.416 1.999,-0.054 5.696,0.22 6.861,1.612 1.164,1.392 0.782,5.078 0.373,7.037 -0.79,3.783 -2.604,7.019 -5.105,9.111 -3.008,2.518 -7.102,3.433 -10.517,3.433 z m -3.874,-3.585 c 1.39,0.622 8.112,1.494 12.467,-2.148 4.355,-3.643 4.685,-10.416 4.317,-11.892 -1.386,-0.621 -8.111,-1.495 -12.467,2.148 -4.355,3.643 -4.684,10.416 -4.317,11.892 z m -0.158,-0.085 m 17.1,-13.871 z"
     id="path854"
     style="display:inline" /></g><g
   id="g2041"
   transform="translate(7.6167061,46.789747)"
   style="display:inline"><path
     class="st14"
     d="m 47.911,26.228 c 0,0 3.408,12.659 13.222,13.246 0,0 -13.1,4.525 -13.321,14.202 0,0 -2.578,-13.572 -12.925,-14.059 0,0.001 12.05,-1.825 13.024,-13.389 z"
     id="path826" /><path
     class="st3"
     d="m 47.81,55.176 c -0.713,0 -1.335,-0.506 -1.473,-1.218 -0.023,-0.124 -2.494,-12.417 -11.521,-12.842 -0.771,-0.036 -1.388,-0.65 -1.428,-1.421 -0.04,-0.77 0.511,-1.444 1.273,-1.561 0.441,-0.068 10.895,-1.817 11.754,-12.032 0.061,-0.726 0.635,-1.301 1.359,-1.367 0.736,-0.056 1.394,0.399 1.584,1.102 0.031,0.116 3.259,11.626 11.863,12.141 0.714,0.042 1.297,0.583 1.396,1.292 0.098,0.708 -0.318,1.388 -0.994,1.622 -0.121,0.042 -12.118,4.31 -12.313,12.819 -0.018,0.767 -0.611,1.396 -1.375,1.46 -0.041,0.003 -0.083,0.005 -0.125,0.005 z m -7.74,-15.73 c 3.878,1.97 6.229,5.746 7.586,8.877 2.026,-4.021 5.942,-6.787 8.949,-8.427 -4.134,-1.843 -6.783,-5.651 -8.334,-8.723 -1.793,4.361 -5.27,6.869 -8.201,8.273 z"
     id="path828" /><path
     class="st14"
     d="m 8.0875223,64.36821 c 0,0 2.0059897,7.231541 7.7826397,7.566868 0,0 -7.7108297,2.584939 -7.8409097,8.112995 0,0 -1.51745,-7.753102 -7.60780004,-8.031303 0,5.69e-4 7.09278004,-1.042546 7.66607004,-7.64856 z"
     id="path826-5"
     style="display:inline;fill:#d7e057;stroke-width:0.579869" /><path
     class="st3"
     d="m 8.0280723,80.904957 c -0.41969,0 -0.78578,-0.289044 -0.86701,-0.69579 -0.0122,-0.07085 -1.46801,-7.0933 -6.78140004,-7.336084 -0.45384,-0.02048 -0.81701,-0.371317 -0.84055,-0.811755 -0.0244,-0.439868 0.30077,-0.824894 0.74931,-0.891733 0.25941,-0.03885 6.41294004,-1.037974 6.91853004,-6.873364 0.0359,-0.414733 0.37379,-0.743207 0.79995,-0.780909 0.43322,-0.032 0.82051,0.227928 0.93233,0.629524 0.0183,0.06625 1.9183197,6.641435 6.9827297,6.935632 0.42026,0.02404 0.76342,0.333045 0.8217,0.738065 0.0577,0.404452 -0.18734,0.792904 -0.58507,0.926581 -0.0712,0.02404 -7.1327997,2.462116 -7.2476097,7.322943 -0.0121,0.438152 -0.35962,0.797475 -0.80931,0.834034 -0.0244,0.0017 -0.049,0.0029 -0.0736,0.0029 z m -4.55584,-8.985871 c 2.28262,1.125375 3.66644,3.28244 4.46521,5.071047 1.19251,-2.297025 3.4975297,-3.877121 5.2674697,-4.813982 -2.43331,-1.052827 -3.9925497,-3.228174 -4.9054797,-4.983076 -1.05538,2.491253 -3.102,3.923965 -4.8272,4.726011 z"
     id="path828-9"
     style="display:inline;fill:#3a312a;stroke-width:0.579869" /><path
     class="st14"
     d="m 26.212,43.209 c 0,0 2.411,8.954 9.352,9.369 0,0 -9.266,3.201 -9.422,10.045 0,0 -1.824,-9.6 -9.142,-9.944 0,0 8.524,-1.291 9.212,-9.47 z"
     id="path830" /><path
     class="st3"
     d="m 26.142,64.124 c -0.714,0 -1.337,-0.507 -1.473,-1.22 -0.016,-0.082 -1.704,-8.442 -7.739,-8.727 -0.771,-0.036 -1.388,-0.65 -1.428,-1.421 -0.04,-0.77 0.511,-1.444 1.273,-1.561 0.296,-0.047 7.363,-1.243 7.942,-8.113 0.062,-0.726 0.636,-1.303 1.361,-1.368 0.717,-0.058 1.392,0.399 1.582,1.102 v 0 c 0.021,0.079 2.227,7.92 7.993,8.265 0.714,0.042 1.299,0.584 1.396,1.293 0.097,0.709 -0.32,1.388 -0.996,1.622 -0.081,0.028 -8.282,2.953 -8.412,8.662 -0.018,0.768 -0.611,1.398 -1.376,1.461 -0.04,0.003 -0.082,0.005 -0.123,0.005 z m -4.52,-11.528 c 2.107,1.333 3.523,3.395 4.447,5.28 1.376,-2.232 3.516,-3.872 5.365,-4.973 -2.287,-1.269 -3.885,-3.35 -4.941,-5.224 -1.174,2.287 -3.016,3.876 -4.871,4.917 z"
     id="path832" /><path
     class="st14"
     d="m 26.212,16.551 c 0,0 2.411,8.954 9.352,9.37 0,0 -9.266,3.201 -9.422,10.045 0,0 -1.824,-9.6 -9.142,-9.944 0,0 8.524,-1.291 9.212,-9.471 z"
     id="path834" /><path
     class="st3"
     d="m 26.142,37.466 c -0.714,0 -1.337,-0.507 -1.473,-1.22 -0.016,-0.082 -1.704,-8.441 -7.739,-8.726 -0.771,-0.036 -1.388,-0.65 -1.428,-1.421 -0.04,-0.77 0.511,-1.444 1.273,-1.56 0.296,-0.047 7.363,-1.243 7.942,-8.113 0.062,-0.726 0.636,-1.303 1.361,-1.368 0.717,-0.058 1.392,0.4 1.582,1.102 v 0 c 0.021,0.079 2.227,7.92 7.993,8.265 0.714,0.042 1.299,0.584 1.396,1.293 0.097,0.709 -0.32,1.388 -0.996,1.622 -0.081,0.028 -8.282,2.953 -8.412,8.661 -0.018,0.768 -0.611,1.397 -1.376,1.461 -0.04,0.002 -0.082,0.004 -0.123,0.004 z m -4.52,-11.528 c 2.107,1.333 3.523,3.395 4.447,5.28 1.376,-2.233 3.515,-3.872 5.365,-4.973 -2.287,-1.269 -3.885,-3.35 -4.941,-5.224 -1.174,2.288 -3.016,3.876 -4.871,4.917 z"
     id="path836"
     style="display:inline" /></g>
	</g>
</g></g><path
       class="st14"
       d="m 194.0098,99.678895 c 0,0 0.65961,2.436335 2.55908,2.549305 0,0 -2.53547,0.87088 -2.57824,2.7333 0,0 -0.49897,-2.61205 -2.50161,-2.70578 0,1.9e-4 2.33225,-0.35123 2.52077,-2.576825 z"
       id="path826-2"
       style="display:inline;fill:#d7e057;stroke-width:0.193002" /><path
       class="st3"
       d="m 194.13656,105.49953 c -0.138,0 -0.25839,-0.0974 -0.2851,-0.23441 -0.004,-0.0239 -0.4827,-2.38976 -2.22986,-2.47155 -0.14922,-0.007 -0.26864,-0.1251 -0.27638,-0.27349 -0.008,-0.14819 0.0989,-0.27791 0.24638,-0.30042 0.0854,-0.0131 2.1087,-0.3497 2.27496,-2.315661 0.0118,-0.139725 0.1229,-0.250389 0.26303,-0.263091 0.14245,-0.01078 0.26981,0.07679 0.30658,0.212089 0.006,0.02232 0.63077,2.237523 2.29606,2.336633 0.13819,0.008 0.25103,0.11221 0.27019,0.24866 0.019,0.13626 -0.0616,0.26713 -0.19239,0.31217 -0.0234,0.008 -2.34541,0.82949 -2.38315,2.46712 -0.003,0.14762 -0.11826,0.26868 -0.26613,0.28099 -0.008,5.8e-4 -0.0161,9.6e-4 -0.0242,9.6e-4 z m -1.49806,-3.02737 c 0.75058,0.37915 1.20561,1.10587 1.46825,1.70846 0.39213,-0.77388 1.15006,-1.30622 1.73206,-1.62185 -0.80012,-0.3547 -1.31283,-1.08758 -1.61302,-1.67882 -0.34704,0.83931 -1.02,1.322 -1.58729,1.59221 z"
       id="path828-2"
       style="display:inline;fill:#3a312a;stroke-width:0.193002" /></g><g
     id="layer3"
     transform="translate(-71.061495,-49.733051)"><g
       id="layer3-4"
       transform="translate(9.6435127,-6.9743394)"
       style="fill:#ffffff"><text
         xml:space="preserve"
         transform="matrix(0.44865492,0,0,0.43542133,-118.17369,-136.68249)"
         id="text1062-8"
         style="font-style:normal;font-variant:normal;font-weight:600;font-stretch:normal;font-size:57.4675px;line-height:0;font-family:'URW Bookman';-inkscape-font-specification:'URW Bookman Semi-Bold';letter-spacing:2.34221px;word-spacing:0px;white-space:pre;shape-inside:url(#rect1064-7);display:inline;fill:#ffffff;fill-opacity:1"><tspan
           x="500.86914"
           y="529.7067"
           id="tspan4386"><tspan
             style="font-weight:bold;font-size:44.697px;font-family:Congenial;-inkscape-font-specification:'Congenial Bold'"
             id="tspan4384">NEWS</tspan></tspan></text></g></g><g
     id="layer2"
     transform="translate(-69.392572,-49.119418)"><text
       xml:space="preserve"
       transform="matrix(0.36789453,0,0,0.42523611,32.731609,-81.392884)"
       id="text168-1"
       style="font-size:64.218px;white-space:pre;shape-inside:url(#rect170-5);display:inline;fill:#00ffff;fill-opacity:1"><tspan
         x="97.082031"
         y="355.08076"
         id="tspan4390"><tspan
           style="font-weight:bold;font-family:Licorice;-inkscape-font-specification:'Licorice Bold'"
           id="tspan4388">Northcoder</tspan></tspan></text></g><style
     type="text/css"
     id="style697">
	.st0{display:none;}
	.st1{display:inline;}
	.st2{fill:none;stroke:#6B1D1D;stroke-width:0.5;stroke-miterlimit:10;}
	.st3{fill:#3A312A;}
	.st4{fill:#87796F;}
	.st5{fill:#D5DE58;}
	.st6{fill:#695B51;}
	.st7{fill:#FCE8CB;}
	.st8{fill:#F16C7A;}
	.st9{fill:#8AC6DD;}
	.st10{fill:#DECAAD;}
	.st11{fill:#D6DF58;}
	.st12{fill-rule:evenodd;clip-rule:evenodd;fill:#FCE8CB;}
	.st13{fill:#F5978A;}
	.st14{fill:#D7E057;}
	.st15{fill-rule:evenodd;clip-rule:evenodd;fill:#87796F;}
	.st16{fill:#6CA8BF;}
	.st17{fill:#B9C239;}
	.st18{fill:#D34E5C;}
	.st19{fill:#FAE6CA;}
	.st20{fill:#F8E4C8;}
	.st21{fill:#8AC5DC;}
	.st22{fill:#EF6D7A;}
	.st23{fill:#EB6E7A;}
	.st24{fill:#89C4DB;}
	.st25{fill-rule:evenodd;clip-rule:evenodd;fill:#F16C7A;}
	.st26{fill:#F7E3C7;}
	.st27{fill:#F6E2C6;}
	.st28{fill:#ED6E7A;}
	.st29{fill:#8AC3DA;}
	.st30{fill:#D5DC57;}
	.st31{fill-rule:evenodd;clip-rule:evenodd;fill:#D7E057;}
	.st32{fill-rule:evenodd;clip-rule:evenodd;fill:#F8E4C8;}
	.st33{fill:#D4DB56;}
	.st34{fill:#F59689;}
	.st35{fill:#DDC9AC;}
	.st36{fill:#D24E5C;}
	.st37{fill:#6A5C52;}
	.st38{fill:#6CA6BE;}
	.st39{fill:#B8C136;}
	.st40{fill-rule:evenodd;clip-rule:evenodd;fill:#FAE6CA;}
</style></svg>
